<svg width="87" height="87" viewBox="0 0 87 87" fill="none" xmlns="http://www.w3.org/2000/svg">
<path d="M21 0H36V43.0426C36 44.1471 35.1046 45.0426 34 45.0426H23C21.8954 45.0426 21 44.1471 21 43.0426V0Z" fill="#272727"/>
<path d="M22 0H35V37.9574C35 40.1666 33.2091 41.9574 31 41.9574H26C23.7909 41.9574 22 40.1666 22 37.9574V0Z" fill="black"/>
<path d="M51 0H66V43.0426C66 44.1471 65.1046 45.0426 64 45.0426H53C51.8954 45.0426 51 44.1471 51 43.0426V0Z" fill="#272727"/>
<path d="M52 0H65V37.9574C65 40.1666 63.2091 41.9574 61 41.9574H56C53.7909 41.9574 52 40.1666 52 37.9574V0Z" fill="black"/>
<path d="M1 52.3489C1 51.2444 1.89543 50.3489 3 50.3489H24C25.1046 50.3489 26 51.2444 26 52.3489V85C26 86.1046 25.1046 87 24 87H3C1.89543 87 1 86.1046 1 85V52.3489Z" fill="#B2B2B2"/>
<path d="M0 71.1064C0 70.0018 0.895431 69.1064 2 69.1064H25C26.1046 69.1064 27 70.0018 27 71.1064V76.3617C27 77.4663 26.1046 78.3617 25 78.3617H2C0.895431 78.3617 0 77.4663 0 76.3617V71.1064Z" fill="#D5D5D5"/>
<path d="M0 46.2766H25C26.1046 46.2766 27 47.172 27 48.2766V75.1277C27 76.2322 26.1046 77.1277 25 77.1277H2C0.895431 77.1277 0 76.2322 0 75.1277V46.2766Z" fill="white"/>
<rect width="18" height="57.383" fill="white"/>
<path d="M18 44.2769C18.0002 45.3813 18.8955 46.2769 20 46.2769H18V44.2769Z" fill="white"/>
<path d="M31 52.3489C31 51.2444 31.8954 50.3489 33 50.3489H54C55.1046 50.3489 56 51.2444 56 52.3489V85C56 86.1046 55.1046 87 54 87H33C31.8954 87 31 86.1046 31 85V52.3489Z" fill="#B2B2B2"/>
<path d="M30 71.1064C30 70.0018 30.8954 69.1064 32 69.1064H55C56.1046 69.1064 57 70.0018 57 71.1064V76.3617C57 77.4663 56.1046 78.3617 55 78.3617H32C30.8954 78.3617 30 77.4663 30 76.3617V71.1064Z" fill="#D5D5D5"/>
<path d="M30 48.2766C30 47.172 30.8954 46.2766 32 46.2766H55C56.1046 46.2766 57 47.172 57 48.2766V75.1277C57 76.2322 56.1046 77.1277 55 77.1277H32C30.8954 77.1277 30 76.2322 30 75.1277V48.2766Z" fill="white"/>
<rect x="39" width="9" height="56.766" fill="white"/>
<path d="M48 44.2769C48.0002 45.3813 48.8955 46.2769 50 46.2769H48V44.2769Z" fill="white"/>
<path d="M39 44.2769C38.9998 45.3813 38.1045 46.2769 37 46.2769H39V44.2769Z" fill="white"/>
<path d="M61 52.3489C61 51.2444 61.8954 50.3489 63 50.3489H84C85.1046 50.3489 86 51.2444 86 52.3489V85C86 86.1046 85.1046 87 84 87H63C61.8954 87 61 86.1046 61 85V52.3489Z" fill="#B2B2B2"/>
<path d="M60 71.1064C60 70.0018 60.8954 69.1064 62 69.1064H85C86.1046 69.1064 87 70.0018 87 71.1064V76.3617C87 77.4663 86.1046 78.3617 85 78.3617H62C60.8954 78.3617 60 77.4663 60 76.3617V71.1064Z" fill="#D5D5D5"/>
<path d="M60 48.2766C60 47.172 60.8954 46.2766 62 46.2766H87V75.1277C87 76.2322 86.1046 77.1277 85 77.1277H62C60.8954 77.1277 60 76.2322 60 75.1277V48.2766Z" fill="white"/>
<rect x="69" width="18" height="58.617" fill="white"/>
<path d="M69 44.2769C68.9998 45.3813 68.1045 46.2769 67 46.2769H69V44.2769Z" fill="white"/>
</svg>
