<svg width="27" height="141" viewBox="0 0 27 141" fill="none" xmlns="http://www.w3.org/2000/svg">
<path d="M1 83.6C1 82.4954 1.89543 81.6 3 81.6H24C25.1046 81.6 26 82.4954 26 83.6V139C26 140.105 25.1046 141 24 141H3C1.89543 141 1 140.105 1 139V83.6Z" fill="#B2B2B2"/>
<path d="M0 114C0 112.895 0.895431 112 2 112H25C26.1046 112 27 112.895 27 114V125C27 126.105 26.1046 127 25 127H2C0.895431 127 0 126.105 0 125V114Z" fill="#D5D5D5"/>
<path d="M0 75H25C26.1046 75 27 75.8954 27 77V123C27 124.105 26.1046 125 25 125H2C0.895431 125 0 124.105 0 123V75Z" fill="white"/>
<rect width="18" height="93" fill="white"/>
<path d="M18 73C18 74.1046 18.8954 75 20 75H18V73Z" fill="white"/>
</svg>
