<svg width="27" height="141" viewBox="0 0 27 141" fill="none" xmlns="http://www.w3.org/2000/svg">
<path d="M1 83.6C1 82.4954 1.89543 81.6 3 81.6H24C25.1046 81.6 26 82.4954 26 83.6V139C26 140.105 25.1046 141 24 141H3C1.89543 141 1 140.105 1 139V83.6Z" fill="#8C8C8C"/>
<path d="M0 114C0 112.895 0.895431 112 2 112H25C26.1046 112 27 112.895 27 114V135C27 136.105 26.1046 137 25 137H2C0.895431 137 0 136.105 0 135V114Z" fill="#B2B2B2"/>
<path d="M0 77C0 75.8954 0.895431 75 2 75H25C26.1046 75 27 75.8954 27 77V133C27 134.105 26.1046 135 25 135H2C0.895431 135 0 134.105 0 133V77Z" fill="#D5D5D5"/>
<rect x="9" width="9" height="85" fill="#D5D5D5"/>
<path d="M18 73C18 74.1046 18.8954 75 20 75H18V73Z" fill="#D5D5D5"/>
<path d="M9 73C9 74.1046 8.10457 75 7 75H9V73Z" fill="#D5D5D5"/>
</svg>
