<svg width="64" height="70" viewBox="0 0 64 70" fill="none" xmlns="http://www.w3.org/2000/svg">
<rect width="64" height="70" rx="8" fill="#0A0D47"/>
<rect width="64" height="64" rx="8" fill="url(#paint0_linear_82_4)"/>
<g filter="url(#filter0_i_82_4)">
<path d="M36.3102 19.7167C36.9543 17.6036 35.7588 15.3259 33.5609 15.1038C30.6093 14.8056 27.6117 15.15 24.7791 16.133C20.6791 17.5559 17.1364 20.2432 14.6611 23.808C12.1859 27.3728 10.9059 31.6313 11.0054 35.97C11.1049 40.3088 12.5788 44.504 15.2148 47.9517C17.8509 51.3993 21.5131 53.9214 25.674 55.1547C29.835 56.3881 34.28 56.2691 38.3691 54.8149C42.4581 53.3607 45.9801 50.6463 48.4279 47.0626C50.1191 44.5868 51.2372 41.7843 51.7232 38.8578C52.085 36.6785 50.2004 34.9278 47.9923 34.9953L47.0791 35.0233C44.871 35.0908 43.2012 36.9851 42.5175 39.0858C42.1788 40.1264 41.6924 41.1202 41.0675 42.0351C39.684 44.0605 37.6934 45.5947 35.3823 46.4166C33.0712 47.2385 30.559 47.3057 28.2072 46.6086C25.8555 45.9115 23.7857 44.4861 22.2958 42.5375C20.806 40.589 19.9729 38.2179 19.9167 35.7657C19.8604 33.3134 20.5839 30.9066 21.9829 28.8918C23.3818 26.877 25.3841 25.3582 27.7014 24.554C28.7481 24.1908 29.8347 23.9818 30.9277 23.9278C33.1342 23.8187 35.3999 22.7039 36.0439 20.5907L36.3102 19.7167Z" fill="white"/>
<path d="M46.5188 17.8383C47.7015 18.6304 47.7015 20.3696 46.5188 21.1618L33.3629 29.9726C32.0341 30.8625 30.25 29.9101 30.25 28.3108L30.25 10.6892C30.25 9.08988 32.0341 8.13749 33.3629 9.02743L46.5188 17.8383Z" fill="white"/>
</g>
<defs>
<filter id="filter0_i_82_4" x="11" y="8.68579" width="42.7679" height="49.3142" filterUnits="userSpaceOnUse" color-interpolation-filters="sRGB">
<feFlood flood-opacity="0" result="BackgroundImageFix"/>
<feBlend mode="normal" in="SourceGraphic" in2="BackgroundImageFix" result="shape"/>
<feColorMatrix in="SourceAlpha" type="matrix" values="0 0 0 0 0 0 0 0 0 0 0 0 0 0 0 0 0 0 127 0" result="hardAlpha"/>
<feOffset dx="2" dy="3"/>
<feGaussianBlur stdDeviation="1"/>
<feComposite in2="hardAlpha" operator="arithmetic" k2="-1" k3="1"/>
<feColorMatrix type="matrix" values="0 0 0 0 0 0 0 0 0 0 0 0 0 0 0 0 0 0 0.25 0"/>
<feBlend mode="normal" in2="shape" result="effect1_innerShadow_82_4"/>
</filter>
<linearGradient id="paint0_linear_82_4" x1="32" y1="0" x2="32" y2="64" gradientUnits="userSpaceOnUse">
<stop stop-color="#187ED2"/>
<stop offset="1" stop-color="#0C0E6C"/>
</linearGradient>
</defs>
</svg>
